<svg width="20" height="20" viewBox="0 0 24 24" fill="none" xmlns="http://www.w3.org/2000/svg">
    <path d="M19.27 5.33C17.94 4.71 16.5 4.26 15 4C14.89 4.19 14.76 4.46 14.67 4.68C13.06 4.44 11.46 4.44 9.87 4.68C9.78 4.46 9.64 4.19 9.53 4C8.03 4.26 6.59 4.71 5.26 5.33C2.53 9.34 1.77 13.22 2.15 17.03C3.91 18.34 5.61 19.16 7.28 19.72C7.63 19.24 7.94 18.74 8.21 18.21C7.58 17.98 6.98 17.69 6.41 17.35C6.58 17.23 6.74 17.1 6.9 16.97C10.27 18.5 13.95 18.5 17.28 16.97C17.44 17.1 17.6 17.23 17.77 17.35C17.2 17.69 16.59 17.98 15.96 18.21C16.23 18.74 16.54 19.24 16.89 19.72C18.56 19.16 20.27 18.34 22.02 17.03C22.47 12.64 21.27 8.8 19.27 5.33ZM8.57 14.81C7.55 14.81 6.71 13.89 6.71 12.77C6.71 11.64 7.53 10.72 8.57 10.72C9.61 10.72 10.45 11.64 10.43 12.77C10.43 13.89 9.61 14.81 8.57 14.81ZM15.57 14.81C14.55 14.81 13.71 13.89 13.71 12.77C13.71 11.64 14.53 10.72 15.57 10.72C16.61 10.72 17.45 11.64 17.43 12.77C17.43 13.89 16.61 14.81 15.57 14.81Z" fill="white"/>
</svg> 